<svg width="28" height="28" fill="none" xmlns="http://www.w3.org/2000/svg"><rect width="28" height="28" rx="5" fill="#EDF5FF"/><path d="M19.4 15.91c-.273 0-.87-.05-1.2 0 1.094.84 1.2 1.09 1.2 2.59V21H23v-2.546c0-1.272-2.4-2.545-3.6-2.545zM11.6 15C9.403 15 5 16.17 5 18.5V21h13.2v-2.5c0-2.33-4.403-3.5-6.6-3.5zm0-2c.75 0 1.47-.316 2-.879.53-.562.829-1.325.829-2.121s-.298-1.559-.829-2.121a2.75 2.75 0 00-2-.879c-.75 0-1.47.316-2 .879A3.095 3.095 0 008.77 10c0 .796.298 1.559.829 2.121a2.75 2.75 0 002 .879zm9-.91c0 1.407-1.075 2.546-2.4 2.546s-2.4-1.14-2.4-2.545c0-1.406 1.075-2.546 2.4-2.546 1.326 0 2.4 1.14 2.4 2.546z" fill="#98BFED"/></svg>