<svg width="44" height="10" fill="none" xmlns="http://www.w3.org/2000/svg"><path d="M9.839 8.798l.722-.103L13.638 0h2.076l3.056 8.695.723.103V10h-3.445V8.798l.701-.124-.444-1.373h-3.278l-.445 1.373.702.124V10H9.839V8.798zm3.667-2.974h2.32l-1.14-3.523h-.041l-1.14 3.523zM24.98 0c1.157 0 2.07.295 2.736.886.671.586 1.007 1.355 1.007 2.308 0 .957-.336 1.726-1.007 2.307-.667.582-1.579.873-2.736.873h-1.71v2.218l1.084.206V10h-4.189V8.798l1.077-.206V1.415l-1.077-.206V0h4.814zm-1.71 4.828h1.709c.564 0 .99-.15 1.277-.453.292-.307.438-.696.438-1.168 0-.48-.146-.876-.438-1.188-.287-.316-.713-.474-1.277-.474H23.27v3.283zm6.099-3.619V0h4.188v1.209l-1.084.206v7.177l1.084.206V10h-4.188V8.798l1.084-.206V1.415l-1.084-.206zM1.98 4.816v.041l4 1.394V8.12L0 5.599v-1.56l5.98-2.513v1.868l-4 1.422zm40.04 0v.041l-4 1.394V8.12L44 5.599v-1.56l-5.98-2.513v1.868l4 1.422z" fill="#4E5F6B"/></svg>