<svg width="28" height="28" fill="none" xmlns="http://www.w3.org/2000/svg"><rect width="28" height="28" rx="5" fill="#DDFFF7"/><path d="M20.689 19.166l-2.886-2.886a5.762 5.762 0 001.043-3.357 5.8 5.8 0 00-.467-2.3 5.919 5.919 0 00-1.262-1.894 5.92 5.92 0 00-1.893-1.262 5.821 5.821 0 00-2.3-.467 5.82 5.82 0 00-2.302.467A5.92 5.92 0 008.73 8.729c-.53.53-.95 1.161-1.262 1.893A5.82 5.82 0 007 12.923c0 .802.156 1.569.467 2.301a5.921 5.921 0 001.262 1.893c.53.53 1.161.95 1.893 1.262a5.822 5.822 0 002.301.467 5.762 5.762 0 003.357-1.043l2.886 2.877a1 1 0 00.757.32c.292 0 .544-.107.757-.32.213-.213.32-.465.32-.757 0-.297-.104-.55-.311-.757zm-5.103-3.58c-.738.737-1.625 1.106-2.663 1.106-1.037 0-1.925-.369-2.663-1.106-.737-.738-1.106-1.625-1.106-2.663 0-1.038.369-1.925 1.106-2.663.738-.737 1.626-1.106 2.663-1.106 1.038 0 1.925.369 2.663 1.106.738.738 1.106 1.625 1.106 2.663 0 1.038-.368 1.925-1.106 2.663z" fill="#5EBEB8"/></svg>