<svg width="28" height="28" fill="none" xmlns="http://www.w3.org/2000/svg"><rect width="28" height="28" rx="5" fill="#FCEDFF"/><path fill-rule="evenodd" clip-rule="evenodd" d="M8 7a3 3 0 00-3 3v8a3 3 0 003 3h12a3 3 0 003-3v-8a3 3 0 00-3-3H8zm1 2a2 2 0 00-2 2v6a2 2 0 002 2h10a2 2 0 002-2v-6a2 2 0 00-2-2H9z" fill="#E2A6FF"/><path fill-rule="evenodd" clip-rule="evenodd" d="M6.648 8.976a1 1 0 011.376-.328L14 12.326l5.976-3.678a1 1 0 011.048 1.704l-6.5 4a1 1 0 01-1.048 0l-6.5-4a1 1 0 01-.328-1.376z" fill="#E2A6FF"/></svg>