<svg width="31" height="32" fill="none" xmlns="http://www.w3.org/2000/svg"><g clip-path="url(#clip0)"><path d="M29.695 25.805h-13.29c-.525 0-.95-.4-.95-.894V7.041c0-.493.425-.893.95-.893h13.29c.524 0 .95.4.95.893v17.87c0 .493-.426.894-.95.894z" fill="#E3F7F0"/><path d="M20.295 10.87h-3.872c-.534 0-.968-.457-.968-1.02 0-.564.434-1.022.968-1.022h3.872c.534 0 .968.458.968 1.022 0 .563-.434 1.02-.968 1.02zm0 4.086h-3.872c-.534 0-.968-.458-.968-1.021 0-.564.434-1.022.968-1.022h3.872c.534 0 .968.458.968 1.021 0 .564-.434 1.022-.968 1.022zm0 4.084h-3.872c-.534 0-.968-.458-.968-1.021 0-.564.434-1.022.968-1.022h3.872c.534 0 .968.458.968 1.021 0 .564-.434 1.022-.968 1.022zm0 4.085h-3.872c-.534 0-.968-.458-.968-1.022 0-.563.434-1.02.968-1.02h3.872c.534 0 .968.457.968 1.02 0 .564-.434 1.021-.968 1.021zm5.808-12.255h-1.936c-.534 0-.968-.457-.968-1.02 0-.564.434-1.022.968-1.022h1.936c.534 0 .968.458.968 1.022 0 .563-.434 1.02-.968 1.02zm0 4.086h-1.936c-.534 0-.968-.457-.968-1.021 0-.564.434-1.021.968-1.021h1.936c.534 0 .968.457.968 1.02 0 .565-.434 1.022-.968 1.022zm0 4.084h-1.936c-.534 0-.968-.458-.968-1.022 0-.563.434-1.02.968-1.02h1.936c.534 0 .968.457.968 1.02 0 .564-.434 1.021-.968 1.021zm0 4.085h-1.936c-.534 0-.968-.458-.968-1.021 0-.564.434-1.021.968-1.021h1.936c.534 0 .968.457.968 1.02 0 .564-.434 1.022-.968 1.022z" fill="#4E9F83"/><path d="M17.01 1.956a.933.933 0 00-.78-.202L1.04 4.602a.947.947 0 00-.774.933V26.42c0 .456.324.849.774.932L16.23 30.2a.945.945 0 00.78-.201.95.95 0 00.344-.731V2.687a.947.947 0 00-.344-.731z" fill="#4E9F83"/><path d="M13.321 19.15l-3.002-3.431 3.036-3.904a.95.95 0 00-.165-1.333.951.951 0 00-1.333.166l-2.812 3.615-2.37-2.708a.944.944 0 00-1.338-.089.948.948 0 00-.089 1.339l2.61 2.984-2.646 3.403a.95.95 0 101.5 1.165l2.42-3.113 2.761 3.153a.942.942 0 001.339.091.948.948 0 00.09-1.338z" fill="#FAFAFA"/></g><defs><clipPath id="clip0"><path fill="#fff" d="M.266.787h30.379v30.379H.266z"/></clipPath></defs></svg>