<svg width="92" height="17" fill="none" xmlns="http://www.w3.org/2000/svg"><path d="M27.273 4.368c-1.237 0-1.955.56-2.298.934-.042-.332-.26-.758-1.113-.758H22v1.93h.76c.124 0 .166.042.166.166v8.83h2.205v-3.55c.343.312.998.747 2.028.747 2.153 0 3.661-1.701 3.661-4.15.01-2.48-1.425-4.15-3.547-4.15zm-.447 6.38c-1.186 0-1.727-1.13-1.727-2.188 0-1.66.905-2.252 1.758-2.252 1.04 0 1.748.892 1.748 2.23-.01 1.537-.905 2.21-1.779 2.21zm7.969-.341v-4.68c0-.788-.384-1.172-1.165-1.172h-1.976v1.93h.76c.124 0 .166.042.166.166v4.659c0 .799.374 1.172 1.165 1.172h1.976v-1.92h-.76c-.114.011-.166-.04-.166-.155zm6.764-6.039c-1.238 0-1.956.56-2.31.934-.041-.332-.26-.758-1.113-.758h-1.85v1.93h.758c.125 0 .167.042.167.166v8.83h2.226v-3.55c.343.312 1.009.747 2.028.747 2.153 0 3.661-1.701 3.661-4.15 0-2.48-1.435-4.15-3.567-4.15zm-.448 6.38c-1.185 0-1.726-1.13-1.726-2.188 0-1.66.904-2.252 1.757-2.252 1.04 0 1.748.892 1.748 2.23 0 1.537-.895 2.21-1.779 2.21zm9.163-6.38c-2.382 0-4.036 1.712-4.036 4.15 0 2.407 1.79 4.15 4.265 4.15 1.945 0 3.13-1.151 3.182-1.193l.094-.083-.957-1.587-.146.135c-.01.01-.884.809-2.038.809-1.103 0-1.914-.675-2.111-1.733h5.231l.01-.145c0-.02.053-.488.053-.716 0-2.262-1.425-3.787-3.547-3.787zM48.61 7.377c.239-.778.842-1.224 1.664-1.224.666 0 1.175.508 1.269 1.224H48.61zm14.24 3.031V2.74c0-.788-.385-1.172-1.176-1.172h-1.976v1.93h.76c.124 0 .166.041.166.166v1.39c-.323-.29-.957-.674-2.06-.674-2.142 0-3.64 1.712-3.64 4.15 0 2.48 1.435 4.15 3.557 4.15 1.217 0 1.924-.56 2.267-.954.042.342.27.778 1.093.778h1.913v-1.92h-.738c-.125-.01-.167-.062-.167-.176zm-3.943.342c-1.05 0-1.726-.871-1.726-2.23 0-1.318.707-2.2 1.758-2.2 1.196 0 1.726 1.1 1.726 2.19 0 1.66-.905 2.24-1.758 2.24zm10.769-6.308c-.916 0-1.769.53-2.268 1.37v-.176c0-.716-.395-1.09-1.175-1.09H64.34v1.93h.76c.124 0 .166.042.166.166v5.841h2.205V9.31c0-.415.052-.82.156-1.194.332-1.1 1.217-1.483 1.924-1.483.25 0 .437.03.437.03l.187.032v-2.19l-.135-.02c0-.01-.188-.042-.364-.042zm4.639 5.965v-4.68c0-.788-.385-1.172-1.165-1.172h-1.789v1.93h.572c.125 0 .167.042.167.166v4.659c0 .799.374 1.172 1.165 1.172h1.976v-1.92h-.76c-.114.011-.166-.04-.166-.155zm9.332-5.852h-1.175c-.686 0-1.06.24-1.28.82L79.758 9.38a5.237 5.237 0 00-.135.477 6.4 6.4 0 00-.145-.477L78.04 5.375c-.218-.591-.572-.82-1.28-.82h-1.247v1.93h.322c.177 0 .229.063.27.166l2.226 5.842h2.486l2.226-5.842c.042-.103.094-.166.27-.166h.344v-1.93h-.01zm4.807-.187c-2.382 0-4.036 1.712-4.036 4.15 0 2.407 1.789 4.15 4.264 4.15 1.945 0 3.131-1.151 3.183-1.193l.094-.083-.957-1.587-.146.135c-.01.01-.884.809-2.028.809-1.103 0-1.914-.675-2.111-1.733h5.231l.01-.145c0-.02.042-.488.042-.716 0-2.262-1.425-3.787-3.546-3.787zm-1.665 3.009c.24-.778.843-1.224 1.665-1.224.665 0 1.175.508 1.269 1.224h-2.934zm-53.151-5.82h-1.966v2.065h1.966V1.557zm34.532 0h-1.965v2.065h1.966V1.557z" fill="#203232"/><rect width="17" height="17" rx="3" fill="#203232"/><path d="M8.986 4.333c-.936 0-1.478.438-1.738.73-.031-.26-.196-.592-.84-.592H5v1.506h.574c.094 0 .126.033.126.13V13h1.666v-2.77c.26.243.755.583 1.533.583 1.628 0 2.768-1.328 2.768-3.24.008-1.936-1.077-3.24-2.681-3.24zm-.338 4.981c-.896 0-1.305-.882-1.305-1.709 0-1.296.684-1.757 1.328-1.757.787 0 1.321.696 1.321 1.741-.008 1.199-.684 1.725-1.344 1.725z" fill="#fff"/></svg>