<svg width="64" height="19" fill="none" xmlns="http://www.w3.org/2000/svg"><path d="M15.413 8.144h-4.597l3.23-3.205c-.248-.37-.496-.616-.745-.986a7.083 7.083 0 01-.994-.863l-3.23 3.205V1.858a4.256 4.256 0 00-1.242-.123 3.856 3.856 0 00-1.243.123v4.56L3.238 3.092c-.386.22-.723.512-.994.862-.248.37-.621.617-.87.987l3.23 3.204H.132L.008 9.376a3.77 3.77 0 00.124 1.233h4.597l-3.354 3.328a6.633 6.633 0 001.863 1.848l3.23-3.204v4.56c.406.102.825.144 1.243.124a3.88 3.88 0 001.242-.123v-4.56l3.23 3.204c.386-.22.724-.513.994-.863.32-.3.611-.63.87-.986l-3.23-3.205h4.596a4.16 4.16 0 00.125-1.232 4.588 4.588 0 00-.124-1.356zM9.698 9.376a6.202 6.202 0 01-.248 1.603 3.74 3.74 0 01-1.615.246 6.349 6.349 0 01-1.616-.246 3.671 3.671 0 01-.248-1.603 6.203 6.203 0 01.248-1.602 3.754 3.754 0 011.616-.247 6.4 6.4 0 011.615.247c.143.523.226 1.06.248 1.602zM46.813 8.25H45.8a2.03 2.03 0 01-.047-.295 3.456 3.456 0 010-.653c.01-.112.026-.21.047-.295h2.521v8.17a3.677 3.677 0 01-.38.047c-.128.01-.255.015-.382.016a5.01 5.01 0 01-.366-.016 3.706 3.706 0 01-.381-.047V8.249zm8.777 2.054c0-.298-.039-.581-.116-.852a2.181 2.181 0 00-.343-.709 1.672 1.672 0 00-.576-.485 1.774 1.774 0 00-.832-.184c-.633 0-1.118.197-1.456.59-.337.392-.542.939-.614 1.64h3.937zm-3.953 1.178c.02.892.246 1.545.677 1.959.43.414 1.066.621 1.907.621a5.61 5.61 0 002.1-.398c.083.16.15.353.203.581.05.222.082.449.093.677-.342.15-.718.26-1.128.334a7.64 7.64 0 01-1.362.112c-.726 0-1.348-.104-1.868-.31-.52-.208-.947-.5-1.284-.877a3.49 3.49 0 01-.74-1.338 5.835 5.835 0 01-.233-1.696c0-.605.075-1.17.226-1.696a3.85 3.85 0 01.692-1.37 3.356 3.356 0 011.175-.923c.473-.228 1.03-.342 1.674-.342.55 0 1.032.097 1.447.287.416.189.763.453 1.043.788.28.335.493.733.638 1.194a5 5 0 01.218 1.505c0 .149-.006.305-.016.47-.008.14-.019.281-.03.422h-5.433.001zm7.176-4.475a3.278 3.278 0 01.654-.063c.114 0 .228.005.342.015.114.01.218.027.311.048.031.16.062.37.093.629.032.26.047.48.047.66.218-.36.508-.673.864-.939.356-.265.817-.398 1.377-.398.083 0 .169.003.257.008.076.004.151.012.226.024.021.1.037.2.047.303a3.46 3.46 0 01-.008.732 8.458 8.458 0 01-.055.398 1.05 1.05 0 00-.256-.032h-.21c-.28 0-.548.04-.802.12a1.67 1.67 0 00-.685.422c-.203.2-.365.478-.482.828-.117.35-.18.801-.18 1.354v4.06a3.71 3.71 0 01-.38.048 5.023 5.023 0 01-.763 0 4.454 4.454 0 01-.397-.047v-8.17zM47.889 2.645c0 .19-.033.38-.099.558a1.518 1.518 0 01-.545.102h-.003c-.186 0-.37-.035-.545-.102a1.616 1.616 0 01-.1-.558v-.003c0-.196.036-.384.1-.558.174-.067.359-.101.545-.101h.002c.187 0 .372.034.546.101.066.179.1.368.1.559v.002zm1.902-.442h-1.508l1.067-1.091a2.624 2.624 0 00-.61-.623l-1.066 1.09V.038A2.539 2.539 0 0047.245 0h-.003c-.146 0-.29.013-.429.037V1.58L45.747.489a2.644 2.644 0 00-.609.623l1.066 1.091h-1.508s-.036.29-.036.44v.001c0 .15.013.297.036.438h1.509l-1.067 1.091c.168.241.373.452.609.623l1.066-1.09v1.543c.14.023.283.036.429.036h.004c.143 0 .287-.012.428-.036V3.707l1.067 1.091a2.657 2.657 0 00.609-.623l-1.067-1.09h1.509a2.78 2.78 0 00.035-.44v-.003c0-.147-.012-.292-.035-.439zM22.455 14.954l4.202-6.689h-3.704a3.981 3.981 0 01-.046-.637c0-.223.015-.43.046-.621h5.992l.078.207-4.233 6.704h3.968c.032.216.047.435.047.653 0 .213-.015.414-.046.605h-6.226l-.078-.222zM34.58 11.34a13.62 13.62 0 00-.591-.063 6.95 6.95 0 00-.607-.032c-.643 0-1.133.122-1.47.366-.337.244-.508.616-.508 1.115 0 .318.057.568.171.748a1.2 1.2 0 00.428.414c.172.096.36.154.568.175.207.022.405.032.592.032.247 0 .493-.014.739-.04.254-.026.48-.066.677-.119V11.34h.001zm0-1.544c0-.627-.155-1.062-.466-1.306-.311-.244-.761-.367-1.354-.367-.364 0-.703.03-1.02.088a7.653 7.653 0 00-.926.23c-.197-.35-.296-.769-.296-1.257a7.014 7.014 0 011.167-.27 8.306 8.306 0 011.23-.098c1.037 0 1.826.243 2.365.724.54.482.81 1.256.81 2.318v5.11a24.2 24.2 0 01-1.323.263 9.264 9.264 0 01-1.588.135c-.508 0-.967-.047-1.377-.143a2.78 2.78 0 01-1.043-.462 2.13 2.13 0 01-.662-.812c-.155-.33-.233-.727-.233-1.194 0-.457.09-.858.273-1.203.178-.341.431-.635.739-.86a3.273 3.273 0 011.074-.51c.405-.11.83-.167 1.276-.167.332 0 .605.008.817.024.213.016.392.035.537.056v-.3zm4.732 4.044c.196.075.4.128.607.16.208.032.477.048.81.048.373 0 .715-.061 1.026-.183a2.04 2.04 0 00.802-.566c.223-.255.4-.575.53-.963.129-.389.194-.847.194-1.38 0-.849-.153-1.525-.46-2.022-.305-.497-.806-.748-1.501-.748-.26 0-.509.047-.745.143a1.869 1.869 0 00-.639.43 2.131 2.131 0 00-.451.725c-.114.292-.171.64-.171 1.043v3.312l-.002.001zM37.77 7.01a3.202 3.202 0 01.654-.064 3.676 3.676 0 01.653.064c.01.021.023.087.039.199l.047.358.046.366c.016.117.023.192.023.223.104-.17.229-.334.374-.493.145-.16.32-.303.523-.43.204-.128.43-.228.685-.303.255-.074.537-.112.848-.112.467 0 .9.08 1.3.24a2.6 2.6 0 011.027.74c.286.334.508.759.67 1.274.16.515.24 1.123.24 1.823 0 1.402-.37 2.498-1.113 3.289-.742.79-1.792 1.186-3.151 1.186-.235 0-.468-.016-.7-.047a4.097 4.097 0 01-.623-.128v3.743a5.262 5.262 0 01-.778.063c-.128 0-.255-.006-.382-.016a3.704 3.704 0 01-.38-.047V7.009h-.002z" fill="#FF4A00"/></svg>